<?xml version="1.0" standalone="no"?>
<!DOCTYPE svg PUBLIC "-//W3C//DTD SVG 20010904//EN"
 "http://www.w3.org/TR/2001/REC-SVG-20010904/DTD/svg10.dtd">
<svg version="1.0" xmlns="http://www.w3.org/2000/svg"
 width="96.000000pt" height="96.000000pt" viewBox="0 0 96.000000 96.000000"
 preserveAspectRatio="xMidYMid meet">
<metadata>
Created by potrace 1.11, written by Peter Selinger 2001-2013
</metadata>
<g transform="translate(0.000000,96.000000) scale(0.100000,-0.100000)"
fill="#000000" stroke="none">
<path d="M620 750 l0 -50 -280 0 -280 0 0 -254 c0 -218 2 -257 16 -270 13 -14
64 -16 404 -16 340 0 391 2 404 16 14 13 16 55 16 300 0 351 13 324 -160 324
l-120 0 0 -50z m-310 -245 l75 -75 -78 -77 -77 -78 -27 28 -27 27 49 50 49 50
-49 50 -49 50 24 25 c13 14 26 25 29 25 4 0 40 -34 81 -75z m490 -225 l0 -40
-170 0 -170 0 0 40 0 40 170 0 170 0 0 -40z"/>
</g>
</svg>
